<svg xmlns="http://www.w3.org/2000/svg" width="183" height="131" viewBox="0 0 183 131" fill="none">
  <path
    d="M10.3354 22.4646C16.5763 36.1075 16.5014 53.5586 18.6964 68.1083C20.1364 77.6536 21.7404 86.5171 21.7445 96.2764C21.7485 105.534 18.9255 118.639 21.696 127.545C24.4387 136.361 107.739 113.688 118.497 113.755C126.177 113.803 173.358 114.373 173.089 112.749C172.947 111.893 161.419 100.514 161.662 100.553C168.052 101.56 177.122 107.713 181.665 112.164C183.48 113.942 162.756 126.276 160.025 128.053"
    stroke="white" stroke-width="2" stroke-linecap="round" />
  <path
    d="M4.62151 1.16045C2.80507 1.47344 1.4437 28.5862 1.19039 31.9034C1.1299 32.6956 0.724469 43 1.32236 43C3.19264 43 4.22885 26.5636 4.35758 24.8089C4.89491 17.4843 3.53234 9.1446 4.68749 1.97905C5.67892 -4.17089 24.0909 20.4552 26 25.7184"
    stroke="white" stroke-width="2" stroke-linecap="round" />
  <path
    d="M48.0432 87C45.3363 85.5061 48.6723 65.4412 49.3653 62.5966C50.7375 56.9641 51.0825 55.3879 57.5918 56.5667C67.3925 58.3415 73.4859 65.2923 83.8138 65.2923C91.6204 65.2923 95.2419 62.048 99.6057 55.7863C104.102 49.3339 109.719 43.8858 114.443 37.6256C116.059 35.4842 118.243 29.3553 121.641 31.9504C125.723 35.0676 128.165 39.6766 132.071 42.9462C151.647 59.3324 168.042 18.2859 171 4"
    stroke="white" stroke-width="2" stroke-linecap="round" />
</svg>